<svg width="287" height="32" viewBox="0 0 287 32" fill="none" xmlns="http://www.w3.org/2000/svg">
<path d="M15.652 31.774C12.728 31.774 10.148 31.172 7.912 29.968C5.70467 28.7353 3.97033 27.001 2.709 24.765C1.47633 22.5003 0.86 19.8343 0.86 16.767C0.86 13.7857 1.47633 11.177 2.709 8.941C3.94167 6.705 5.719 4.97067 8.041 3.738C10.3917 2.47667 13.2297 1.846 16.555 1.846C18.0743 1.846 19.479 2.018 20.769 2.362C22.0877 2.706 23.3347 3.20766 24.51 3.867L24.682 9.887H24.252L21.844 5.415C21.4713 4.69833 21.1273 4.18233 20.812 3.867C20.4967 3.55167 20.0953 3.308 19.608 3.136C19.1493 2.99267 18.7193 2.89233 18.318 2.835C17.9453 2.749 17.4437 2.706 16.813 2.706C15.0357 2.706 13.459 3.179 12.083 4.125C10.7357 5.071 9.68933 6.576 8.944 8.64C8.19867 10.704 7.826 13.413 7.826 16.767C7.826 20.0923 8.17 22.8013 8.858 24.894C9.57467 26.9867 10.578 28.5203 11.868 29.495C13.158 30.441 14.6487 30.914 16.34 30.914C16.598 30.914 16.8417 30.8997 17.071 30.871C17.329 30.8137 17.5727 30.7563 17.802 30.699C18.3467 30.613 18.705 30.3837 18.877 30.011C19.049 29.6383 19.135 29.194 19.135 28.678V20.164C19.135 19.046 18.5617 18.358 17.415 18.1L15.437 17.584V17.154H27.563V17.584L26.961 17.756C25.8717 18.1 25.327 18.8167 25.327 19.906V29.237C23.8363 30.0683 22.317 30.699 20.769 31.129C19.2497 31.559 17.544 31.774 15.652 31.774ZM39.8718 9.672C41.7351 9.672 43.3261 10.059 44.6448 10.833C45.9634 11.5783 46.9668 12.6103 47.6548 13.929C48.3714 15.219 48.7298 16.6953 48.7298 18.358C48.7298 18.6733 48.7154 19.003 48.6868 19.347C48.6581 19.6623 48.6008 19.949 48.5148 20.207H35.7008C35.7294 23.303 36.2741 25.539 37.3348 26.915C38.4241 28.2623 40.0294 28.936 42.1508 28.936C43.5841 28.936 44.7451 28.7067 45.6338 28.248C46.5224 27.7893 47.3538 27.1157 48.1278 26.227L48.5578 26.614C47.6691 28.1907 46.4794 29.4233 44.9888 30.312C43.5268 31.2007 41.7638 31.645 39.6998 31.645C37.6644 31.645 35.8584 31.215 34.2818 30.355C32.7051 29.4663 31.4724 28.205 30.5838 26.571C29.6951 24.937 29.2508 22.9877 29.2508 20.723C29.2508 18.3723 29.7668 16.38 30.7988 14.746C31.8308 13.0833 33.1494 11.822 34.7548 10.962C36.3888 10.102 38.0944 9.672 39.8718 9.672ZM39.7428 10.532C38.9114 10.532 38.1948 10.79 37.5928 11.306C37.0194 11.7933 36.5608 12.682 36.2168 13.972C35.9014 15.2333 35.7294 17.025 35.7008 19.347H43.0538C43.3404 16.2223 43.2258 13.972 42.7098 12.596C42.1938 11.22 41.2048 10.532 39.7428 10.532ZM59.0427 31.645C57.208 31.645 55.7747 31.1863 54.7427 30.269C53.7394 29.3517 53.2377 27.8897 53.2377 25.883V11.177H50.2707V10.747L51.3027 10.575C52.1914 10.3743 52.951 10.0877 53.5817 9.715C54.241 9.34233 54.886 8.84067 55.5167 8.21L59.0427 4.297H59.4727L59.3437 10.317H64.1597V11.177H59.3007V26.657C59.3007 27.6603 59.5157 28.42 59.9457 28.936C60.4044 29.452 60.9777 29.71 61.6657 29.71C62.2677 29.71 62.798 29.5667 63.2567 29.28C63.7154 28.9647 64.174 28.549 64.6327 28.033L65.0627 28.463C64.4894 29.4377 63.701 30.2117 62.6977 30.785C61.6944 31.3583 60.476 31.645 59.0427 31.645ZM75.9031 31V30.57L76.4191 30.398C77.4511 30.054 77.9671 29.3373 77.9671 28.248V5.286C77.9671 4.684 77.8667 4.23967 77.6661 3.953C77.4654 3.66633 77.0784 3.45133 76.5051 3.308L75.8601 3.136V2.706L83.4281 0.856999L84.1161 1.244L83.9441 7.307V12.682C84.9474 11.8507 86.0224 11.1483 87.1691 10.575C88.3444 9.973 89.6344 9.672 91.0391 9.672C92.9024 9.672 94.3787 10.2023 95.4681 11.263C96.5861 12.3237 97.1451 13.9577 97.1451 16.165V28.291C97.1451 28.8643 97.2597 29.323 97.4891 29.667C97.7184 30.011 98.1197 30.269 98.6931 30.441L99.0371 30.57V31H88.9751V30.57L89.4911 30.441C90.5231 30.097 91.0391 29.366 91.0391 28.248V14.746C91.0391 13.5993 90.8384 12.811 90.4371 12.381C90.0644 11.951 89.3907 11.736 88.4161 11.736C87.7854 11.736 87.0974 11.865 86.3521 12.123C85.6067 12.3523 84.8471 12.768 84.0731 13.37V28.334C84.0731 29.452 84.5891 30.1687 85.6211 30.484L85.9651 30.57V31H75.9031ZM105.877 7.436C104.903 7.436 104.071 7.135 103.383 6.533C102.724 5.90233 102.394 5.114 102.394 4.168C102.394 3.19333 102.724 2.405 103.383 1.803C104.071 1.201 104.903 0.899998 105.877 0.899998C106.852 0.899998 107.669 1.201 108.328 1.803C108.988 2.405 109.317 3.19333 109.317 4.168C109.317 5.114 108.988 5.90233 108.328 6.533C107.669 7.135 106.852 7.436 105.877 7.436ZM100.803 31V30.57L101.405 30.398C101.979 30.226 102.366 29.968 102.566 29.624C102.796 29.28 102.91 28.8213 102.91 28.248V14.789C102.91 14.187 102.796 13.7427 102.566 13.456C102.366 13.1407 101.979 12.9257 101.405 12.811L100.803 12.682V12.252L108.672 9.715L109.102 10.145L108.973 16.251V28.291C108.973 28.8643 109.074 29.323 109.274 29.667C109.504 30.011 109.891 30.269 110.435 30.441L110.865 30.57V31H100.803ZM112.769 31V30.57L113.414 30.398C113.988 30.226 114.375 29.968 114.575 29.624C114.805 29.28 114.919 28.8357 114.919 28.291V14.832C114.919 14.2013 114.805 13.7427 114.575 13.456C114.375 13.1407 113.988 12.9257 113.414 12.811L112.769 12.639V12.209L120.165 9.715L120.595 10.145L120.982 13.843V14.187C121.384 13.3843 121.9 12.6533 122.53 11.994C123.19 11.306 123.906 10.747 124.68 10.317C125.483 9.887 126.271 9.672 127.045 9.672C128.135 9.672 128.966 9.973 129.539 10.575C130.113 11.177 130.399 11.9367 130.399 12.854C130.399 13.8287 130.113 14.5883 129.539 15.133C128.995 15.649 128.335 15.907 127.561 15.907C126.357 15.907 125.297 15.305 124.379 14.101L124.293 14.015C124.007 13.6137 123.677 13.3987 123.304 13.37C122.932 13.3127 122.588 13.4847 122.272 13.886C121.986 14.144 121.742 14.4593 121.541 14.832C121.369 15.176 121.197 15.5773 121.025 16.036V28.033C121.025 29.1797 121.527 29.8963 122.53 30.183L123.906 30.57V31H112.769ZM141.871 9.672C143.734 9.672 145.325 10.059 146.644 10.833C147.962 11.5783 148.966 12.6103 149.654 13.929C150.37 15.219 150.729 16.6953 150.729 18.358C150.729 18.6733 150.714 19.003 150.686 19.347C150.657 19.6623 150.6 19.949 150.514 20.207H137.7C137.728 23.303 138.273 25.539 139.334 26.915C140.423 28.2623 142.028 28.936 144.15 28.936C145.583 28.936 146.744 28.7067 147.633 28.248C148.521 27.7893 149.353 27.1157 150.127 26.227L150.557 26.614C149.668 28.1907 148.478 29.4233 146.988 30.312C145.526 31.2007 143.763 31.645 141.699 31.645C139.663 31.645 137.857 31.215 136.281 30.355C134.704 29.4663 133.471 28.205 132.583 26.571C131.694 24.937 131.25 22.9877 131.25 20.723C131.25 18.3723 131.766 16.38 132.798 14.746C133.83 13.0833 135.148 11.822 136.754 10.962C138.388 10.102 140.093 9.672 141.871 9.672ZM141.742 10.532C140.91 10.532 140.194 10.79 139.592 11.306C139.018 11.7933 138.56 12.682 138.216 13.972C137.9 15.2333 137.728 17.025 137.7 19.347H145.053C145.339 16.2223 145.225 13.972 144.709 12.596C144.193 11.22 143.204 10.532 141.742 10.532ZM161.988 31.645C160.296 31.645 158.777 31.2723 157.43 30.527C156.082 29.753 155.007 28.5777 154.205 27.001C153.431 25.3957 153.044 23.346 153.044 20.852C153.044 18.3293 153.488 16.251 154.377 14.617C155.265 12.9543 156.441 11.7217 157.903 10.919C159.365 10.0877 160.956 9.672 162.676 9.672C163.679 9.672 164.639 9.77233 165.557 9.973C166.474 10.1737 167.291 10.4747 168.008 10.876V5.286C168.008 4.684 167.907 4.23967 167.707 3.953C167.535 3.66633 167.148 3.46566 166.546 3.351L165.729 3.179V2.749L173.555 0.856999L174.028 1.244L173.856 7.264V28.291C173.856 28.8643 173.956 29.3373 174.157 29.71C174.357 30.054 174.73 30.2977 175.275 30.441L175.662 30.57V31L168.309 31.473L167.922 29.925C167.148 30.441 166.259 30.8567 165.256 31.172C164.281 31.4873 163.192 31.645 161.988 31.645ZM164.482 30.054C165.686 30.054 166.789 29.6957 167.793 28.979V11.908C166.732 11.22 165.643 10.876 164.525 10.876C163.149 10.876 161.973 11.6787 160.999 13.284C160.024 14.8607 159.537 17.3547 159.537 20.766C159.537 24.1773 159.995 26.5853 160.913 27.99C161.83 29.366 163.02 30.054 164.482 30.054ZM182.901 31.645C181.869 31.645 180.995 31.2867 180.278 30.57C179.562 29.8533 179.203 28.9933 179.203 27.99C179.203 26.9867 179.562 26.1123 180.278 25.367C180.995 24.6217 181.869 24.249 182.901 24.249C183.933 24.249 184.808 24.6217 185.524 25.367C186.241 26.1123 186.599 26.9867 186.599 27.99C186.599 28.9933 186.241 29.8533 185.524 30.57C184.808 31.2867 183.933 31.645 182.901 31.645ZM199.653 31V30.57L200.427 30.312C201 30.1113 201.387 29.839 201.588 29.495C201.789 29.151 201.889 28.6923 201.889 28.119C201.918 26.399 201.932 24.6647 201.932 22.916C201.932 21.1673 201.932 19.4187 201.932 17.67V15.95C201.932 14.23 201.932 12.51 201.932 10.79C201.932 9.04133 201.918 7.307 201.889 5.587C201.889 5.01367 201.803 4.555 201.631 4.211C201.488 3.867 201.144 3.59466 200.599 3.394L199.653 3.05V2.62H220.465L220.766 9.758H220.336L217.885 5.243C217.598 4.69833 217.269 4.26833 216.896 3.953C216.523 3.63767 216.007 3.48 215.348 3.48H208.425C208.396 5.51533 208.382 7.59367 208.382 9.715C208.382 11.8363 208.382 13.9433 208.382 16.036H212.854C213.513 16.036 214.001 15.8927 214.316 15.606C214.631 15.3193 214.932 14.9037 215.219 14.359L216.122 12.725H216.552V20.25H216.122L215.176 18.616C214.889 18.1 214.588 17.6843 214.273 17.369C213.986 17.0537 213.513 16.896 212.854 16.896H208.382C208.382 18.9027 208.382 20.8233 208.382 22.658C208.382 24.464 208.396 26.2413 208.425 27.99C208.425 29.108 208.97 29.839 210.059 30.183L211.349 30.57V31H199.653ZM226.799 31.645C225.136 31.645 223.732 31.172 222.585 30.226C221.467 29.28 220.908 27.9183 220.908 26.141C220.908 24.7937 221.596 23.561 222.972 22.443C224.348 21.2963 226.512 20.4363 229.465 19.863C229.924 19.777 230.44 19.691 231.013 19.605C231.586 19.4903 232.188 19.3757 232.819 19.261V15.864C232.819 13.9147 232.575 12.553 232.088 11.779C231.629 10.9763 230.898 10.575 229.895 10.575C229.207 10.575 228.662 10.8043 228.261 11.263C227.86 11.693 227.602 12.4527 227.487 13.542L227.401 14.015C227.344 15.2477 227.043 16.1507 226.498 16.724C225.953 17.2973 225.28 17.584 224.477 17.584C223.732 17.584 223.115 17.3547 222.628 16.896C222.141 16.4373 221.897 15.821 221.897 15.047C221.897 13.8717 222.298 12.8827 223.101 12.08C223.932 11.2773 225.022 10.6753 226.369 10.274C227.716 9.87267 229.178 9.672 230.755 9.672C233.306 9.672 235.27 10.3027 236.646 11.564C238.051 12.7967 238.753 14.8177 238.753 17.627V27.13C238.753 28.42 239.355 29.065 240.559 29.065H241.505L241.892 29.409C241.347 30.097 240.745 30.6273 240.086 31C239.455 31.3727 238.552 31.559 237.377 31.559C236.116 31.559 235.112 31.2723 234.367 30.699C233.65 30.097 233.177 29.3087 232.948 28.334C232.088 29.2513 231.199 30.0397 230.282 30.699C229.393 31.3297 228.232 31.645 226.799 31.645ZM229.422 29.022C229.995 29.022 230.526 28.893 231.013 28.635C231.529 28.3483 232.131 27.9183 232.819 27.345V20.121C232.532 20.1783 232.246 20.2357 231.959 20.293C231.672 20.3503 231.343 20.4077 230.97 20.465C229.651 20.809 228.591 21.3967 227.788 22.228C227.014 23.0307 226.627 24.12 226.627 25.496C226.627 26.6713 226.899 27.56 227.444 28.162C227.989 28.7353 228.648 29.022 229.422 29.022ZM250.216 31.645C248.811 31.645 247.55 31.473 246.432 31.129C245.314 30.8137 244.282 30.4123 243.336 29.925L243.379 24.808H243.809L245.271 27.388C245.902 28.5347 246.59 29.3947 247.335 29.968C248.109 30.5127 249.084 30.785 250.259 30.785C251.635 30.785 252.739 30.484 253.57 29.882C254.43 29.2513 254.86 28.42 254.86 27.388C254.86 26.442 254.559 25.668 253.957 25.066C253.355 24.464 252.237 23.9193 250.603 23.432L248.797 22.873C247.048 22.357 245.672 21.5543 244.669 20.465C243.666 19.3757 243.164 18.0427 243.164 16.466C243.164 14.574 243.909 12.9687 245.4 11.65C246.891 10.3313 249.026 9.672 251.807 9.672C252.925 9.672 253.971 9.801 254.946 10.059C255.949 10.2883 256.91 10.6467 257.827 11.134L257.569 15.778H257.139L255.634 13.112C255.089 12.166 254.545 11.5067 254 11.134C253.484 10.7327 252.696 10.532 251.635 10.532C250.66 10.532 249.743 10.8043 248.883 11.349C248.023 11.8937 247.593 12.6677 247.593 13.671C247.593 14.6457 247.951 15.4197 248.668 15.993C249.413 16.5663 250.503 17.0967 251.936 17.584L253.871 18.143C255.935 18.7737 257.411 19.648 258.3 20.766C259.189 21.8553 259.633 23.174 259.633 24.722C259.633 26.8147 258.802 28.4917 257.139 29.753C255.505 31.0143 253.197 31.645 250.216 31.645ZM269.676 31.645C267.841 31.645 266.408 31.1863 265.376 30.269C264.372 29.3517 263.871 27.8897 263.871 25.883V11.177H260.904V10.747L261.936 10.575C262.824 10.3743 263.584 10.0877 264.215 9.715C264.874 9.34233 265.519 8.84067 266.15 8.21L269.676 4.297H270.106L269.977 10.317H274.793V11.177H269.934V26.657C269.934 27.6603 270.149 28.42 270.579 28.936C271.037 29.452 271.611 29.71 272.299 29.71C272.901 29.71 273.431 29.5667 273.89 29.28C274.348 28.9647 274.807 28.549 275.266 28.033L275.696 28.463C275.122 29.4377 274.334 30.2117 273.331 30.785C272.327 31.3583 271.109 31.645 269.676 31.645ZM282.633 31.645C281.601 31.645 280.726 31.2867 280.01 30.57C279.293 29.8533 278.935 28.9933 278.935 27.99C278.935 26.9867 279.293 26.1123 280.01 25.367C280.726 24.6217 281.601 24.249 282.633 24.249C283.665 24.249 284.539 24.6217 285.256 25.367C285.972 26.1123 286.331 26.9867 286.331 27.99C286.331 28.9933 285.972 29.8533 285.256 30.57C284.539 31.2867 283.665 31.645 282.633 31.645Z" fill="white"/>
</svg>
